# 3ds Max Wavefront OBJ Exporter v0.97b - (c)2007 guruware
# File Created: 05.10.2015 03:43:49

#
# object Box002
#

v  0.2842 5.3372 8.4188
v  0.7788 5.3372 8.4188
v  0.7788 5.3372 7.5417
v  0.2842 5.3372 7.5417
v  0.0315 0.0000 8.8670
v  1.0315 0.0000 8.8670
v  0.9681 0.1494 8.7546
v  0.0949 0.1494 8.7546
v  1.0315 0.0000 7.0936
v  0.9681 0.1494 7.2059
v  0.0315 0.0000 7.0936
v  0.0949 0.1494 7.2059
v  0.2842 0.2032 8.4188
v  0.7788 0.2032 8.4188
v  0.7788 0.2032 7.5417
v  0.2842 0.2032 7.5417
v  0.2842 5.3372 -7.5417
v  0.7788 5.3372 -7.5417
v  0.7788 5.3372 -8.4188
v  0.2842 5.3372 -8.4188
v  0.0315 0.0000 -7.0936
v  1.0315 0.0000 -7.0936
v  0.9681 0.1494 -7.2059
v  0.0949 0.1494 -7.2059
v  1.0315 0.0000 -8.8670
v  0.9681 0.1494 -8.7546
v  0.0315 0.0000 -8.8670
v  0.0949 0.1494 -8.7546
v  0.2842 0.2032 -7.5417
v  0.7788 0.2032 -7.5417
v  0.7788 0.2032 -8.4188
v  0.2842 0.2032 -8.4188
v  0.4783 9.3648 -8.0000
v  0.4783 9.3648 8.0000
v  0.4783 0.3648 8.0000
v  0.4783 0.3648 -8.0000
v  0.2226 0.3648 -8.0000
v  0.2226 9.3648 -8.0000
v  0.2226 9.3648 8.0000
v  0.2226 0.3648 8.0000
# 40 vertices

vn 0.0000 1.0000 -0.0000
vn 0.0000 0.3904 0.9206
vn 0.9206 0.3904 -0.0000
vn 0.0000 0.3904 -0.9206
vn -0.9206 0.3904 -0.0000
vn 0.0000 0.9619 0.2734
vn 0.2734 0.9619 -0.0000
vn 0.0000 0.9619 -0.2734
vn -0.2734 0.9619 -0.0000
vn 0.0000 0.0000 1.0000
vn 1.0000 0.0000 -0.0000
vn 0.0000 0.0000 -1.0000
vn -1.0000 0.0000 -0.0000
vn 1.0000 -0.0000 0.0000
vn 0.0000 -1.0000 -0.0000
# 15 vertex normals

vt 0.0000 0.0000 0.0000
vt 1.0000 0.0000 0.0000
vt 1.0000 1.0000 0.0000
vt 0.0000 1.0000 0.0000
# 4 texture coords

g Box002
f 1/1/1 2/2/1 3/3/1 
f 3/3/1 4/4/1 1/1/1 
f 5/1/2 6/2/2 7/3/2 
f 7/3/2 8/4/2 5/1/2 
f 6/1/3 9/2/3 10/3/3 
f 10/3/3 7/4/3 6/1/3 
f 9/1/4 11/2/4 12/3/4 
f 12/3/4 10/4/4 9/1/4 
f 11/1/5 5/2/5 8/3/5 
f 8/3/5 12/4/5 11/1/5 
f 13/1/6 8/1/6 7/2/6 
f 7/2/6 14/2/6 13/1/6 
f 14/2/7 7/2/7 10/3/7 
f 10/3/7 15/3/7 14/2/7 
f 15/3/8 10/3/8 12/4/8 
f 12/4/8 16/4/8 15/3/8 
f 16/4/9 12/4/9 8/1/9 
f 8/1/9 13/1/9 16/4/9 
f 13/1/10 14/2/10 2/2/10 
f 2/2/10 1/1/10 13/1/10 
f 14/2/11 15/3/11 3/3/11 
f 3/3/11 2/2/11 14/2/11 
f 15/3/12 16/4/12 4/4/12 
f 4/4/12 3/3/12 15/3/12 
f 16/4/13 13/1/13 1/1/13 
f 1/1/13 4/4/13 16/4/13 
f 17/1/1 18/2/1 19/3/1 
f 19/3/1 20/4/1 17/1/1 
f 21/1/2 22/2/2 23/3/2 
f 23/3/2 24/4/2 21/1/2 
f 22/1/3 25/2/3 26/3/3 
f 26/3/3 23/4/3 22/1/3 
f 25/1/4 27/2/4 28/3/4 
f 28/3/4 26/4/4 25/1/4 
f 27/1/5 21/2/5 24/3/5 
f 24/3/5 28/4/5 27/1/5 
f 29/1/6 24/1/6 23/2/6 
f 23/2/6 30/2/6 29/1/6 
f 30/2/7 23/2/7 26/3/7 
f 26/3/7 31/3/7 30/2/7 
f 31/3/8 26/3/8 28/4/8 
f 28/4/8 32/4/8 31/3/8 
f 32/4/9 28/4/9 24/1/9 
f 24/1/9 29/1/9 32/4/9 
f 29/1/10 30/2/10 18/2/10 
f 18/2/10 17/1/10 29/1/10 
f 30/2/11 31/3/11 19/3/11 
f 19/3/11 18/2/11 30/2/11 
f 31/3/12 32/4/12 20/4/12 
f 20/4/12 19/3/12 31/3/12 
f 32/4/13 29/1/13 17/1/13 
f 17/1/13 20/4/13 32/4/13 
f 33/1/14 34/2/14 35/3/14 
f 35/3/14 36/4/14 33/1/14 
f 37/4/12 38/1/12 33/1/12 
f 33/1/12 36/4/12 37/4/12 
f 38/1/1 39/2/1 34/2/1 
f 34/2/1 33/1/1 38/1/1 
f 39/2/10 40/3/10 35/3/10 
f 35/3/10 34/2/10 39/2/10 
f 40/3/15 37/4/15 36/4/15 
f 36/4/15 35/3/15 40/3/15 
f 38/1/13 37/4/13 40/3/13 
f 40/3/13 39/2/13 38/1/13 
# 64 faces

#
# object Plane001
#

v  0.1082 9.3648 -8.0000
v  0.1082 0.3648 -8.0000
v  0.1082 9.3648 8.0000
v  0.1082 0.3648 8.0000
# 4 vertices

vn -1.0000 0.0000 -0.0000
# 1 vertex normals

vt 0.0000 1.0000 0.0000
vt 0.0000 0.0000 0.0000
vt 1.0000 1.0000 0.0000
vt 1.0000 0.0000 0.0000
# 4 texture coords

g Plane001
f 41/5/16 42/6/16 43/7/16 
f 44/8/16 43/7/16 42/6/16 
# 2 faces

